<svg width="1425" height="4188" viewBox="0 0 1425 4188" fill="none" xmlns="http://www.w3.org/2000/svg">
<line x1="2.5" y1="7.36459e-07" x2="2.49997" y2="4527" stroke="#FBFBFB" stroke-width="5"/>
<line x1="73.5" y1="7.36459e-07" x2="73.5" y2="4527" stroke="#FBFBFB" stroke-width="5"/>
<line x1="144.5" y1="7.36459e-07" x2="144.5" y2="4527" stroke="#FBFBFB" stroke-width="5"/>
<line x1="215.5" y1="7.36459e-07" x2="215.5" y2="4527" stroke="#FBFBFB" stroke-width="5"/>
<line x1="286.5" y1="7.36459e-07" x2="286.5" y2="4527" stroke="#FBFBFB" stroke-width="5"/>
<line x1="357.5" y1="7.36459e-07" x2="357.5" y2="4527" stroke="#FBFBFB" stroke-width="5"/>
<line x1="428.5" y1="7.36459e-07" x2="428.5" y2="4527" stroke="#FBFBFB" stroke-width="5"/>
<line x1="499.5" y1="7.36459e-07" x2="499.5" y2="4527" stroke="#FBFBFB" stroke-width="5"/>
<line x1="570.5" y1="7.36459e-07" x2="570.5" y2="4527" stroke="#FBFBFB" stroke-width="5"/>
<line x1="641.5" y1="7.36459e-07" x2="641.5" y2="4527" stroke="#FBFBFB" stroke-width="5"/>
<line x1="712.5" y1="7.36459e-07" x2="712.5" y2="4527" stroke="#FBFBFB" stroke-width="5"/>
<line x1="783.5" y1="7.36459e-07" x2="783.5" y2="4527" stroke="#FBFBFB" stroke-width="5"/>
<line x1="854.5" y1="7.36459e-07" x2="854.5" y2="4527" stroke="#FBFBFB" stroke-width="5"/>
<line x1="925.5" y1="7.36459e-07" x2="925.5" y2="4527" stroke="#FBFBFB" stroke-width="5"/>
<line x1="996.5" y1="7.36459e-07" x2="996.5" y2="4527" stroke="#FBFBFB" stroke-width="5"/>
<line x1="1067.5" y1="1.09278e-07" x2="1067.5" y2="4527" stroke="#FBFBFB" stroke-width="5"/>
<line x1="1138.5" y1="1.09278e-07" x2="1138.5" y2="4527" stroke="#FBFBFB" stroke-width="5"/>
<line x1="1209.5" y1="1.09278e-07" x2="1209.5" y2="4527" stroke="#FBFBFB" stroke-width="5"/>
<line x1="1280.5" y1="1.09278e-07" x2="1280.5" y2="4527" stroke="#FBFBFB" stroke-width="5"/>
<line x1="1351.5" y1="1.09278e-07" x2="1351.5" y2="4527" stroke="#FBFBFB" stroke-width="5"/>
<line x1="1422.5" y1="1.09278e-07" x2="1422.5" y2="4527" stroke="#FBFBFB" stroke-width="5"/>
</svg>
